# xmcd
#
# Track frame offsets:
#	150
#	14675
#	30087
#	47827
#	60090
#	76182
#	91102
#	108517
#	128055
#	139937
#	165325
#
# Disc length: 2407 seconds
#
# Revision: 1
# Processed by: cddbd v1.5.2PL0 Copyright (c) Steve Scherf et al.
# Submitted via: audiograbber 1.83.01
#
DISCID=7809650b
DTITLE=Bill Dawg - Bill Dawg And His Dirt Road Rockers
DYEAR=2000
DGENRE=Country
TTITLE0=Old Dance Floor
TTITLE1=Ten Dollars Songs
TTITLE2=Whiskey Castles
TTITLE3=It Takes All Kinds
TTITLE4=30 Days
TTITLE5=You Ain´t No Honky Tonk Woman
TTITLE6=Thought You Were My Baby
TTITLE7=Hot Desert Nights
TTITLE8=Can´t Compare To Lovin´ You
TTITLE9=Moonlight On The Costa Del Sol
TTITLE10=Dirt Road Rockers
EXTD=
EXTT0=
EXTT1=
EXTT2=
EXTT3=
EXTT4=
EXTT5=
EXTT6=
EXTT7=
EXTT8=
EXTT9=
EXTT10=
PLAYORDER=
